<?xml version="1.0" standalone="no"?><!DOCTYPE svg PUBLIC "-//W3C//DTD SVG 1.1//EN" "http://www.w3.org/Graphics/SVG/1.1/DTD/svg11.dtd"><svg t="1543906833492" class="icon" style="" viewBox="0 0 1024 1024" version="1.1" xmlns="http://www.w3.org/2000/svg" p-id="1390" xmlns:xlink="http://www.w3.org/1999/xlink" width="200" height="200"><defs><style type="text/css"></style></defs><path d="M998.8 203.6c-21.6-125-51.6-154.6-178.4-176.8-80.6-14.2-194.4-22.2-312-22.2-116.8 0-224.6 7.6-304 21.4-125 21.8-154.6 51.8-176.8 178.4-29.4 167.6-29.8 449.8-1 616 21.6 125 51.6 154.6 178.4 176.8 80.8 14.2 194.8 22.2 312.8 22.2 116.4 0 224.2-7.6 303.4-21.2 125-21.8 154.8-51.8 176.8-178.4 29.2-167.6 29.6-449.8 0.8-616.2z m-31.6 610.8c-19.8 113.6-39.6 133.6-151.4 153-77.4 13.4-183.2 20.8-298 20.8-116.2 0-228.4-8-307.4-21.8-113.6-19.8-133.6-39.8-153-151.4-28.4-163.4-27.8-440.6 1-605.4 19.8-113.4 39.6-133.6 151.4-153 77.6-13.4 183.6-21 298.6-21 116 0 227.8 8 306.8 21.8 113.4 19.8 133.6 39.6 153 151.4 28.2 163.6 27.8 440.8-1 605.6z" fill="" p-id="1391"></path><path d="M513.6 406.2l-137.4 79.6L514 565.4l137.2-79.8zM364.8 503.6l0.6 159.2 138 78.4-0.8-158.8zM661.2 503.6l-137.8 78.8-0.8 158.8 138.2-78.6zM779.2 688.6L718 651.8l35.6-7.8-5.2-23.4-60.4 13.2h-0.2l-12.2 20.6 91.2 54.8zM650.8 695.6l61.4 36.6-35.6 8 5 23.4 60.6-13.4v0.2l12.4-20.8-91.4-54.6zM475.8 401h24v-106.4h-24V366L450.8 339.6l-17.6 16.4 42.6 45zM523.8 294.6v106.4h24v-71.4l25 26.6 17.6-16.6-42.6-45zM352.6 655.6l-12-20.8-61.6 36.2 10.2-35-23.2-6.8-17.2 59.4h-0.2l12.2 20.8zM273 730l12.2 20.8 61.6-36.2-10.2 35 23 6.8 17.4-59.4-12.2-20.8zM831.4 689.4c-41 0-74 33.2-74 74s33.2 74 74 74c41 0 74-33.2 74-74s-33-74-74-74z m0 110.6c-20.2 0-36.4-16.4-36.4-36.4s16.4-36.4 36.4-36.4 36.4 16.4 36.4 36.4-16.2 36.4-36.4 36.4zM512 282.6c41 0 74-33.2 74-74 0-41-33.2-74-74-74-41 0-74 33.2-74 74-0.2 40.8 33 74 74 74z m0-110.4c20.2 0 36.4 16.4 36.4 36.4S532 245 512 245c-20.2 0-36.4-16.4-36.4-36.4s16.2-36.4 36.4-36.4zM194 692.4c-41 0-74 33.2-74 74s33.2 74 74 74c41 0 74-33.2 74-74s-33-74-74-74z m0 110.6c-20.2 0-36.4-16.4-36.4-36.4s16.4-36.4 36.4-36.4 36.4 16.4 36.4 36.4-16.2 36.4-36.4 36.4z" fill="" p-id="1392"></path></svg>