<?xml version="1.0" standalone="no"?><!DOCTYPE svg PUBLIC "-//W3C//DTD SVG 1.1//EN" "http://www.w3.org/Graphics/SVG/1.1/DTD/svg11.dtd"><svg t="1540864606364" class="icon" style="" viewBox="0 0 1024 1024" version="1.1" xmlns="http://www.w3.org/2000/svg" p-id="1951" xmlns:xlink="http://www.w3.org/1999/xlink" width="200" height="200"><defs><style type="text/css"></style></defs><path d="M661.76 413.312c0 84.288-148.16 152.704-330.88 152.704S0 497.6 0 413.312C0 328.96 148.16 260.608 330.88 260.608s330.88 68.352 330.88 152.704z m-0.256 464.256a50.112 50.112 0 0 1 0 10.88c-2.368 26.88-22.4 51.84-55.424 72.832-59.392 37.76-160.448 62.72-275.2 62.72-122.24 0-228.928-28.288-286.208-70.208C16.192 932.992 0 908.8 0 883.008V787.2s0.64-4.544 1.728-0.192c3.52 13.952 12.544 26.048 26.24 39.296 51.2 49.536 167.616 84.224 302.912 84.224 135.424 0 251.776-34.688 302.912-84.288 13.44-12.992 22.4-27.072 26.048-41.792 0 0 0.448-1.664 0.64-1.792 0.192-0.192 0.832-0.32 1.024 0.576v94.336z m0-152.96a50.112 50.112 0 0 1 0 10.88c-2.368 26.88-22.4 51.84-55.424 72.768-59.392 37.824-160.448 62.72-275.2 62.72-122.24 0-228.928-28.16-286.208-70.208C16.192 779.968 0 755.776 0 730.048V634.176s0.64-4.48 1.728-0.128c3.52 13.952 12.544 26.048 26.24 39.232 51.2 49.6 167.616 84.224 302.912 84.224 135.424 0 251.776-34.624 302.912-84.288 13.44-12.992 22.4-27.072 26.048-41.792 0 0 0.448-1.6 0.64-1.792 0.192-0.192 0.832-0.32 1.024 0.576v94.4z m0-154.304a50.112 50.112 0 0 1 0 10.88c-2.368 26.88-22.4 51.84-55.424 72.768-59.392 37.888-160.448 62.72-275.2 62.72-122.24 0-228.928-28.16-286.208-70.208C16.192 625.664 0 601.472 0 575.744V479.936s0.64-4.544 1.728-0.192c3.52 13.952 12.544 26.048 26.24 39.232 51.2 49.6 167.616 84.224 302.912 84.224 135.424 0 251.776-34.624 302.912-84.288 13.44-12.992 22.4-27.072 26.048-41.728 0 0 0.448-1.664 0.64-1.92 0.192-0.128 0.832-0.256 1.024 0.64v94.4z m52.864 191.36v-10.688c1.728-9.472 2.24-19.136 1.664-28.8v-74.24c111.68-7.744 204.48-39.488 248.704-82.304 13.44-13.056 22.4-27.072 25.984-41.792 0 0 0.448-1.664 0.64-1.792 0.256-0.256 0.832-0.32 1.024 0.576V616.96a50.112 50.112 0 0 1 0 10.88c-2.368 26.88-22.4 51.84-55.424 72.832-50.048 31.936-129.92 54.656-222.592 60.928z m-0.704-266.496c112.768-7.616 206.528-39.424 251.072-82.56 13.44-12.992 22.4-27.072 25.984-41.792 0 0 0.448-1.6 0.64-1.792 0.256-0.192 0.832-0.32 1.024 0.576V464a50.112 50.112 0 0 1 0 10.88c-2.368 26.88-22.4 51.84-55.424 72.768-50.048 31.936-129.92 54.656-222.592 60.928V513.92c0-6.272-0.256-12.544-0.704-18.688z m-20.608-81.92h23.232c0-25.728-7.424-49.664-20.928-71.36 120.832-5.184 222.464-38.08 269.376-83.584 13.44-12.992 22.4-27.072 25.984-41.792 0 0 0.448-1.6 0.64-1.792 0.256-0.192 0.832-0.32 1.024 0.576v94.4a50.112 50.112 0 0 1 0 10.88c-2.368 26.88-22.4 51.84-55.424 72.768-50.944 32.512-132.608 55.424-227.392 61.248a129.92 129.92 0 0 0 6.72-41.28h-23.232z m-28.352-107.904c-63.808-59.264-180.48-95.36-312.704-98.88-13.632-16.768-21.12-34.816-21.12-53.76C330.88 68.288 479.104 0 661.76 0c182.72 0 330.88 68.352 330.88 152.704 0 83.84-146.56 151.936-327.936 152.64z" fill="#8CA0B3" p-id="1952"></path></svg>