<?xml version="1.0" standalone="no"?><!DOCTYPE svg PUBLIC "-//W3C//DTD SVG 1.1//EN" "http://www.w3.org/Graphics/SVG/1.1/DTD/svg11.dtd"><svg t="1540967696391" class="icon" style="" viewBox="0 0 1024 1024" version="1.1" xmlns="http://www.w3.org/2000/svg" p-id="5111" xmlns:xlink="http://www.w3.org/1999/xlink" width="200" height="200"><defs><style type="text/css"></style></defs><path d="M835.413333 390.826667c-47.786667-131.413333-185.173333-241.493333-325.973333-241.493334-139.946667 0-241.493333 108.373333-290.986667 238.08-121.173333 5.12-218.453333 110.933333-218.453333 240.64 0 133.12 97.28 220.16 221.013333 241.493334 55.466667 8.533333 88.746667 5.973333 127.146667-3.413334 40.106667-9.386667 104.96-63.146667 104.96-240.64h-149.333333l192-167.253333c9.386667-7.68 23.893333-7.68 33.28 0.853333l180.053333 166.4h-143.36c0 182.613333 73.386667 229.546667 110.933333 240.64 34.133333 8.533333 56.32 11.946667 128 2.56 133.973333-18.773333 218.453333-106.666667 218.453334-239.786666 0.853333-120.32-80.213333-218.453333-187.733334-238.08z" fill="" p-id="5112"></path></svg>