<?xml version="1.0" standalone="no"?><!DOCTYPE svg PUBLIC "-//W3C//DTD SVG 1.1//EN" "http://www.w3.org/Graphics/SVG/1.1/DTD/svg11.dtd"><svg t="1542348125767" class="icon" style="" viewBox="0 0 1024 1024" version="1.1" xmlns="http://www.w3.org/2000/svg" p-id="1847" xmlns:xlink="http://www.w3.org/1999/xlink" width="200" height="200"><defs><style type="text/css"></style></defs><path d="M876.088889 796.444444l130.844444 130.844445-79.644444 79.644444-130.844445-130.844444c-34.133333 22.755556-73.955556 34.133333-113.777777 34.133333-125.155556 0-227.555556-102.4-227.555556-227.555555s102.4-227.555556 227.555556-227.555556 227.555556 102.4 227.555555 227.555556c0 39.822222-11.377778 79.644444-34.133333 113.777777zM113.777778 910.222222h170.666666v113.777778H0V0h819.2L1024 204.8V512h-113.777778V250.311111L773.688889 113.777778H113.777778v796.444444z m568.888889-113.777778c62.577778 0 113.777778-51.2 113.777777-113.777777s-51.2-113.777778-113.777777-113.777778-113.777778 51.2-113.777778 113.777778 51.2 113.777778 113.777778 113.777777zM227.555556 227.555556h455.111111v113.777777H227.555556V227.555556z m0 227.555555h227.555555v113.777778H227.555556V455.111111z" p-id="1848"></path></svg>