<?xml version="1.0" standalone="no"?><!DOCTYPE svg PUBLIC "-//W3C//DTD SVG 1.1//EN" "http://www.w3.org/Graphics/SVG/1.1/DTD/svg11.dtd"><svg t="1540967528356" class="icon" style="" viewBox="0 0 1024 1024" version="1.1" xmlns="http://www.w3.org/2000/svg" p-id="4333" xmlns:xlink="http://www.w3.org/1999/xlink" width="200" height="200"><defs><style type="text/css"></style></defs><path d="M719.539288 772.625856c-4.431939-0.25071-10.289344 4.203742-12.94073 10.112312l-19.475563 42.104956c-2.703575 5.809309-9.611915 8.459672-15.468297 5.757121l-95.40079-44.00626c-5.780657-2.653433-8.384971-9.712199-5.682419-15.519462l19.44998-42.10598c2.703575-5.857405-3.378957-19.073404-6.332218-22.426778-2.904143-3.354398-10.215666-4.357238-16.298198-2.153037l-43.681872 16.121166c-5.955642 2.202155-12.741185-0.901533-14.918781-6.90834l-36.322253-98.579179c-2.25332-6.057973 0.876973-12.766768 6.88378-15.019065l43.655266-16.020882c6.008854-2.252297 11.06501-16.019859 11.265578-20.476357 0.353041-4.356214-4.181229-10.213619-10.063193-12.916171l-42.155099-19.47454c-5.780657-2.704598-8.384971-9.714246-5.682419-15.470343l43.982723-95.373161c2.703575-5.808286 9.711176-8.462742 15.470344-5.709026l42.180681 19.476587c5.857405 2.651386 18.99768-3.405563 22.403243-6.358824 3.454682-2.904143 4.405333-10.264784 2.177595-16.270569l-16.095583-43.656289c-2.252297-6.058996 0.826831-12.767791 6.90834-15.020088l98.476849-36.347837c6.058996-2.202155 12.765745 0.901533 15.043624 6.910387l16.071024 43.706431c0.49221 1.338485 1.548262 2.620687 2.937912 3.809769l0.667196-59.18189c-13.618159-66.034972-72.219835-115.949802-142.28561-115.949803H389.713374c9.637498-47.311539 25.90602-57.372685 76.023464-57.372685H667.270854c57.199747 0 78.127382 46.558385 78.127382 103.782691v68.087725c13.994736 0.602727 53.470819 2.403746 67.137073 5.157463v-98.876961c0-80.155575-65.183582-145.287991-145.264455-145.287991H465.735815c-72.957639 0-132.946918 54.31914-143.159514 124.509758H210.805682c-80.090083 0-145.263431 65.134463-145.263432 145.238873v456.539873c0 80.103386 65.173348 145.239895 145.263432 145.239896h373.506762c62.932308 0 116.126834-40.503483 136.252197-96.575546l0.826832-73.229838a12.987802 12.987802 0 0 0-1.852185-0.268106zM190.055079 484.451574h212.69931v31.140231H190.055079v-31.140231z m0 138.37965h212.69931v31.090089H190.055079v-31.090089z m276.232298 169.418575H190.055079V761.158686h276.233321v31.091113z m0-414.98648H190.055079v-31.141254h276.233321v31.141254z" p-id="4334"></path><path d="M912.912437 568.059783l38.076201-14.017248c5.205559-1.90335 7.93574-7.759731 5.980201-13.068643l-31.69077-85.711104c-1.901303-5.205559-7.783267-7.959276-13.042037-6.007831l-37.947264 14.018272c-5.258771 1.902326-11.614525 1.051959-14.167674-1.902326-2.555196-3.004427-7.836479-14.518668-5.53097-19.525706l16.944927-36.747949c2.354628-5.056156 0.125867-11.163247-4.932336-13.46671l-83.004459-38.299281c-5.107321-2.302439-11.165294-0.100284-13.465686 5.007038l-16.922414 36.747949c-2.353604 5.056156-7.460925 9.012258-11.364839 8.710382-3.855818-0.25071-15.794731-4.555759-17.749246-9.812483l-13.992689-38.049595c-1.978051-5.205559-7.809873-7.909134-13.091156-6.00783L611.275539 381.568369c-5.282307 1.953492-7.958252 7.810896-6.006807 13.06762l14.017248 37.998429c1.953492 5.256724 1.102101 11.665691-1.901303 14.168697-2.955308 2.554172-14.392802 7.860015-19.501146 5.506411l-36.722366-16.922414c-5.006014-2.351558-11.089569-0.099261-13.44215 5.00806l-38.301328 83.006506c-2.352581 5.006014-0.074701 11.113105 4.932336 13.465686l36.720319 16.923438c5.108345 2.352581 9.039887 7.459902 8.761548 11.264554-0.199545 3.903913-4.580319 15.870456-9.812483 17.822925l-38.025035 13.968129c-5.204535 1.952468-7.933693 7.761778-5.981225 13.068644L537.628192 695.677323c1.902326 5.254677 7.81192 7.958252 12.991896 6.056949l38.025035-14.019295c5.281283-1.952468 11.663644-1.101077 14.193257 1.853208 2.578732 2.90312 7.860015 14.419408 5.507434 19.526729l-16.947998 36.646641c-2.352581 5.056156-0.074701 11.215436 4.955872 13.516852l83.035158 38.300304c5.104251 2.353604 11.136641 0.051165 13.491269-5.007037l16.946974-36.647665c2.304486-5.155417 7.40976-9.012258 11.265578-8.809643 3.903913 0.249687 15.821337 4.555759 17.748223 9.863648l14.018271 37.898146c1.87572 5.256724 7.785314 8.010441 13.015432 6.108114l85.811388-31.640627c5.180999-1.954515 7.934716-7.81192 5.980201-13.068644l-13.967106-38.048571c-1.950422-5.206582-1.099031-11.616572 1.854231-14.118556 3.00545-2.603291 14.467503-7.861038 19.575847-5.507434l36.721343 16.922415c5.030573 2.301416 11.116175 0.100284 13.46671-4.957918l38.252209-83.006506c2.351558-5.056156 0.073678-11.213389-5.033643-13.516852l-36.620036-16.922414c-5.107321-2.352581-8.511861-14.618952-8.511861-18.423605-0.00307-3.90596 4.252861-8.662287 9.508561-10.615779M766.650259 670.792563c-52.641941 19.376303-111.045095-7.561209-130.49303-60.178591-19.37528-52.616358 7.532557-111.043049 60.177568-130.468471 52.642964-19.423375 111.043049 7.509021 130.467447 60.128449 19.37528 52.668547-7.534604 111.093191-60.151985 130.518613m0 0" p-id="4335"></path></svg>