<?xml version="1.0" standalone="no"?><!DOCTYPE svg PUBLIC "-//W3C//DTD SVG 1.1//EN" "http://www.w3.org/Graphics/SVG/1.1/DTD/svg11.dtd"><svg t="1540864782600" class="icon" style="" viewBox="0 0 1024 1024" version="1.1" xmlns="http://www.w3.org/2000/svg" p-id="2861" xmlns:xlink="http://www.w3.org/1999/xlink" width="200" height="200"><defs><style type="text/css"></style></defs><path d="M326.827 146.773c19.627 0 34.987 15.36 34.987 34.987v190.293c0 19.627-15.36 34.987-34.987 34.987h-190.293c-19.627 0-34.987-15.36-34.987-34.987v-190.293c0-19.627 15.36-34.987 34.987-34.987h190.293M326.827 59.733h-190.293c-67.413 0-122.027 54.613-122.027 122.027v190.293c0 67.413 54.613 122.027 122.027 122.027h190.293c67.413 0 122.027-54.613 122.027-122.027v-190.293c0-67.413-54.613-122.027-122.027-122.027zM326.827 656.213c19.627 0 34.987 15.36 34.987 34.987v190.293c0 19.627-15.36 34.987-34.987 34.987h-190.293c-19.627 0-34.987-15.36-34.987-34.987v-190.293c0-19.627 15.36-34.987 34.987-34.987h190.293M326.827 569.173h-190.293c-67.413 0-122.027 54.613-122.027 122.027v190.293c0 67.413 54.613 122.027 122.027 122.027h190.293c67.413 0 122.027-54.613 122.027-122.027v-190.293c0-67.413-54.613-122.027-122.027-122.027zM848.213 656.213c19.627 0 34.987 15.36 34.987 34.987v190.293c0 19.627-15.36 34.987-34.987 34.987h-190.293c-19.627 0-34.987-15.36-34.987-34.987v-190.293c0-19.627 15.36-34.987 34.987-34.987h190.293M848.213 569.173h-190.293c-67.413 0-122.027 54.613-122.027 122.027v190.293c0 67.413 54.613 122.027 122.027 122.027h190.293c67.413 0 122.027-54.613 122.027-122.027v-190.293c0-67.413-54.613-122.027-122.027-122.027zM752.64 107.52c8.533 0 17.92 3.413 24.747 10.24l134.827 134.827c13.653 13.653 13.653 35.84 0 49.493l-134.827 133.973c-6.827 6.827-15.36 10.24-24.747 10.24-8.533 0-17.92-3.413-24.747-10.24l-133.973-134.827c-13.653-13.653-13.653-35.84 0-49.493l134.827-134.827c5.973-5.973 15.36-9.387 23.893-9.387M752.64 19.627c-32.427 0-63.147 12.8-86.187 35.84l-133.973 134.827c-47.787 47.787-47.787 125.44 0 173.227l134.827 134.827c23.040 23.040 53.76 35.84 86.187 35.84s63.147-12.8 86.187-35.84l134.827-134.827c47.787-47.787 47.787-125.44 0-173.227l-134.827-134.827c-23.040-23.040-53.76-35.84-87.040-35.84z" p-id="2862"></path></svg>