<?xml version="1.0" standalone="no"?><!DOCTYPE svg PUBLIC "-//W3C//DTD SVG 1.1//EN" "http://www.w3.org/Graphics/SVG/1.1/DTD/svg11.dtd"><svg t="1554959431600" class="icon" style="" viewBox="0 0 1024 1024" version="1.1" xmlns="http://www.w3.org/2000/svg" p-id="787" xmlns:xlink="http://www.w3.org/1999/xlink" width="200" height="200"><defs><style type="text/css"></style></defs><path d="M468.310626 974.048781 159.97786 974.048781C111.196085 974.048781 71.284553 932.770882 71.284553 881.485869L71.284553 24.97561 46.308943 49.951219 781.65338 49.951219C830.474699 49.951219 870.504064 91.403498 870.504064 142.743289L870.504064 490.133325C870.504064 503.926972 881.686027 515.108934 895.479676 515.108934 909.273323 515.108934 920.455285 503.926972 920.455285 490.133325L920.455285 142.743289C920.455285 64.199067 858.459947 0 781.65338 0L46.308943 0 21.333333 0 21.333333 24.97561 21.333333 881.485869C21.333333 959.988932 83.22553 1024 159.97786 1024L468.310626 1024C482.104273 1024 493.286236 1012.818039 493.286236 999.02439 493.286236 985.230741 482.104273 974.048781 468.310626 974.048781L468.310626 974.048781ZM197.162104 374.634146 768.260691 374.634146C782.05434 374.634146 793.236301 363.452186 793.236301 349.658537 793.236301 335.864887 782.05434 324.682927 768.260691 324.682927L197.162104 324.682927C183.368455 324.682927 172.186494 335.864887 172.186494 349.658537 172.186494 363.452186 183.368455 374.634146 197.162104 374.634146L197.162104 374.634146ZM199.955658 224.780489 771.054246 224.780489C784.847893 224.780489 796.029856 213.598526 796.029856 199.804878 796.029856 186.01123 784.847893 174.829268 771.054246 174.829268L199.955658 174.829268C186.16201 174.829268 174.980048 186.01123 174.980048 199.804878 174.980048 213.598526 186.16201 224.780489 199.955658 224.780489L199.955658 224.780489ZM770.601626 1024C908.53811 1024 1020.357724 912.180386 1020.357724 774.243902 1020.357724 636.307418 908.53811 524.487806 770.601626 524.487806 632.665141 524.487806 520.845527 636.307418 520.845527 774.243902 520.845527 912.180386 632.665141 1024 770.601626 1024L770.601626 1024ZM770.601626 974.048781C660.252439 974.048781 570.796749 884.59309 570.796749 774.243902 570.796749 663.894716 660.252439 574.439025 770.601626 574.439025 880.950814 574.439025 970.406505 663.894716 970.406505 774.243902 970.406505 884.59309 880.950814 974.048781 770.601626 974.048781L770.601626 974.048781ZM628.063155 791.904326 698.708245 862.549417C718.235857 882.077028 749.784966 882.10759 769.3688 862.523757L914.030005 717.862551C923.783586 708.108969 923.783586 692.295287 914.030005 682.541705 904.276422 672.788124 888.462741 672.788124 878.709158 682.541705L734.047953 827.20291C733.98662 827.264243 734.064841 827.26432 734.029092 827.228572L663.384 756.583479C653.630417 746.829897 637.816736 746.829897 628.063155 756.583479 618.309572 766.337062 618.309572 782.150743 628.063155 791.904326L628.063155 791.904326Z" p-id="788"></path></svg>